<svg width="105" height="63" viewBox="0 0 105 63" fill="none" xmlns="http://www.w3.org/2000/svg">
<g clip-path="url(#clip0_2_141)">
<path d="M29.8868 22.9886C29.7701 26.6267 31.6039 28.2378 31.6492 29.2609C31.6277 29.4692 31.5561 29.6692 31.4405 29.8445C31.325 30.0197 31.1688 30.1649 30.9851 30.268L28.9116 31.7072C28.6432 31.8937 28.3269 32.0007 27.9995 32.0156C27.9299 32.0124 26.6728 32.3095 24.6819 27.9021C23.4672 29.4054 21.9218 30.6133 20.1638 31.4332C18.4058 32.2531 16.482 32.6633 14.5395 32.6324C11.9022 32.7753 4.75504 31.1482 5.12277 23.6038C4.8652 17.4552 10.6403 13.6356 16.613 13.9585C17.7631 13.9617 20.1121 14.0179 24.2251 14.9656V12.4567C24.6608 8.20661 21.8438 4.90905 16.9661 5.40377C16.5773 5.40537 13.8235 5.32345 9.54034 7.02765C8.34806 7.57055 8.19579 7.4806 7.79891 7.4806C6.59853 7.4806 7.09261 4.03045 7.32264 3.59356C8.16663 2.56558 13.1317 0.64615 18.0045 0.673455C21.2626 0.387753 24.5032 1.38477 27.0259 3.449C28.0514 4.58633 28.8338 5.91795 29.3257 7.36344C29.8177 8.80892 30.0091 10.3383 29.8884 11.8592L29.8868 22.9886ZM15.8873 28.1912C21.1407 28.1157 23.3649 24.9836 23.8719 23.297C24.2704 21.6828 24.204 20.6612 24.204 18.896C22.6375 18.5233 20.3826 18.117 17.7955 18.1138C15.3413 17.9307 10.859 19.0181 11.0339 23.2954C10.833 25.9923 12.8353 28.3389 15.8873 28.1912ZM43.5752 31.8935C42.302 32.0092 41.7091 31.1129 41.5211 30.2279L33.4539 3.78149C33.2967 3.33496 33.193 2.87397 33.1428 2.40335C33.1131 2.20932 33.1622 2.01152 33.2795 1.8534C33.3967 1.69528 33.5725 1.58979 33.7681 1.56009C33.807 1.55366 33.4231 1.56009 37.3725 1.56009C38.7948 1.41874 39.2581 2.52864 39.4055 3.22573L45.1919 25.8461L50.5636 3.22573C50.6495 2.70853 51.0399 1.44765 52.6372 1.58097H55.417C55.7685 1.55206 57.2167 1.50066 57.471 3.24662L62.8849 26.1561L68.8576 3.24662C68.9353 2.89646 69.2982 1.42035 70.9117 1.58097H74.1062C74.2439 1.56009 75.1025 1.45086 74.9567 2.9591C74.887 3.25625 75.5091 1.24688 66.4115 30.2487C66.2252 31.1338 65.6307 32.03 64.3574 31.9144H61.3297C59.5575 32.0991 59.3032 30.3628 59.2757 30.1877L53.9039 8.16164L48.5938 30.1652C48.5679 30.3403 48.3135 32.0766 46.5397 31.8919H43.5752V31.8935ZM87.8773 32.7978C86.9248 32.7994 82.3824 32.7496 78.5853 30.8238C78.2071 30.665 77.8849 30.3984 77.6597 30.0578C77.4344 29.7172 77.3163 29.318 77.3201 28.9108V27.1841C77.3201 25.8268 78.3245 26.0758 78.7505 26.238C80.377 26.8901 81.4202 27.3848 83.4176 27.78C89.3547 28.9895 91.966 27.4105 92.6059 27.0604C94.7361 25.8059 94.9046 22.9356 93.4563 21.4467C91.7587 20.0348 90.9487 19.9818 84.8496 18.0736C84.098 17.8664 77.7705 15.8875 77.7559 9.66345C77.6571 5.1275 81.8138 0.639724 89.0177 0.676667C91.0702 0.675061 96.5391 1.34004 98.0197 3.18558C98.2384 3.52128 98.3469 3.91641 98.3307 4.31636V5.94024C98.3307 6.6534 98.0683 7.00998 97.5418 7.00998C96.2928 6.87185 94.0768 5.21584 89.5782 5.2833C88.4621 5.22548 83.1163 5.42946 83.356 9.29402C83.2864 12.3394 87.6667 13.4814 88.1672 13.6131C94.0735 15.3752 96.0482 15.6675 98.3923 18.3643C101.169 21.9382 99.6721 26.1224 99.097 27.2692C96.0061 33.2909 88.0134 32.801 87.8773 32.7978ZM94.3894 49.6406C83.045 57.948 66.5767 62.3699 52.5157 62.3699C33.543 62.4939 15.2098 55.5767 1.1199 42.978C0.0620835 42.0319 0.995167 40.7357 2.2814 41.4569C17.9113 50.3219 35.6076 54.9798 53.614 54.9684C67.0606 54.8969 80.3606 52.1922 92.75 47.0096C94.6583 46.2065 96.2767 48.2625 94.3894 49.6406ZM99.118 44.2935C97.6666 42.4431 89.515 43.4294 85.8653 43.8614C84.7654 43.9851 84.5791 43.039 85.5753 42.3403C92.0664 37.8156 102.727 39.1118 103.952 40.6329C105.175 42.154 103.62 52.7454 97.5434 57.805C96.6104 58.5872 95.7178 58.1744 96.1325 57.1465C97.4997 53.7332 100.569 46.1455 99.118 44.2935Z" fill="white"/>
</g>
<defs>
<clipPath id="clip0_2_141">
<rect width="104" height="62" fill="white" transform="translate(0.5 0.5)"/>
</clipPath>
</defs>
</svg>
