<svg width="72" height="72" viewBox="0 0 72 72" fill="none" xmlns="http://www.w3.org/2000/svg">
<g clip-path="url(#clip0_2_156)">
<g clip-path="url(#clip1_2_156)">
<g clip-path="url(#clip2_2_156)">
<path d="M13.1998 25.2H10.7998V27.6H13.1998V25.2Z" fill="#0E63F4"/>
</g>
</g>
<g clip-path="url(#clip3_2_156)">
<g clip-path="url(#clip4_2_156)">
<path d="M27.5996 25.2H15.5996V27.6H27.5996V25.2Z" fill="#0E63F4"/>
</g>
</g>
<g clip-path="url(#clip5_2_156)">
<g clip-path="url(#clip6_2_156)">
<path d="M27.6004 30H8.40039V32.4H27.6004V30Z" fill="#0E63F4"/>
</g>
</g>
<g clip-path="url(#clip7_2_156)">
<g clip-path="url(#clip8_2_156)">
<path d="M22.8004 34.8H8.40039V37.2H22.8004V34.8Z" fill="#0E63F4"/>
</g>
</g>
<g clip-path="url(#clip9_2_156)">
<g clip-path="url(#clip10_2_156)">
<path d="M37.1998 60H34.7998V62.4H37.1998V60Z" fill="#0E63F4"/>
</g>
</g>
<g clip-path="url(#clip11_2_156)">
<g clip-path="url(#clip12_2_156)">
<path d="M39.6002 9.6H37.2002V12H39.6002V9.6Z" fill="#0E63F4"/>
</g>
</g>
<g clip-path="url(#clip13_2_156)">
<g clip-path="url(#clip14_2_156)">
<path d="M34.8004 9.6H32.4004V12H34.8004V9.6Z" fill="#0E63F4"/>
</g>
</g>
<g clip-path="url(#clip15_2_156)">
<g clip-path="url(#clip16_2_156)">
<path d="M66.0004 24H55.2004V9.6C55.2004 6.94905 53.0513 4.8 50.4004 4.8H21.6004C18.9494 4.8 16.8004 6.94905 16.8004 9.6V20.4H6.00039C4.01214 20.4 2.40039 22.0117 2.40039 24V38.4C2.40039 40.3882 4.01214 42 6.00039 42H16.8004V62.4C16.8004 65.0509 18.9494 67.2 21.6004 67.2H50.4004C53.0513 67.2 55.2004 65.0509 55.2004 62.4V48H66.0004C67.9886 48 69.6004 46.3882 69.6004 44.4V27.6C69.6004 25.6117 67.9886 24 66.0004 24ZM19.2004 9.6C19.2004 8.27445 20.2748 7.2 21.6004 7.2H50.4004C51.7259 7.2 52.8004 8.27445 52.8004 9.6V14.4H19.2004V9.6ZM6.00039 39.6C5.33769 39.6 4.80039 39.0627 4.80039 38.4V24C4.80039 23.3373 5.33769 22.8 6.00039 22.8H30.0004C30.6631 22.8 31.2004 23.3373 31.2004 24V38.4C31.2004 39.0627 30.6631 39.6 30.0004 39.6H26.4004C25.7377 39.6 25.2004 40.1373 25.2004 40.8V43.3572L19.8664 39.8016C19.669 39.6705 19.4374 39.6004 19.2004 39.6H6.00039ZM52.8004 62.4C52.8004 63.7255 51.7259 64.8 50.4004 64.8H21.6004C20.2748 64.8 19.2004 63.7255 19.2004 62.4V57.6H52.8004V62.4ZM52.8004 55.2H19.2004V42.24L25.7344 46.596C26.2856 46.9638 27.0308 46.8151 27.3986 46.2637C27.5297 46.0672 27.5999 45.8363 27.6004 45.6V42H30.0004C31.9886 42 33.6004 40.3882 33.6004 38.4V24C33.6004 22.0117 31.9886 20.4 30.0004 20.4H19.2004V16.8H52.8004V24H42.0004C40.0121 24 38.4004 25.6117 38.4004 27.6V44.4C38.4004 46.3882 40.0121 48 42.0004 48H44.4004V51.6C44.4002 52.2627 44.9375 52.8001 45.6002 52.8001C45.8374 52.8001 46.0691 52.7299 46.2664 52.5984L52.8004 48.24V55.2ZM67.2004 44.4C67.2004 45.0627 66.6631 45.6 66.0004 45.6H52.8004C52.5634 45.6004 52.3318 45.6705 52.1344 45.8016L46.8004 49.3572V46.8C46.8004 46.1373 46.2631 45.6 45.6004 45.6H42.0004C41.3377 45.6 40.8004 45.0627 40.8004 44.4V27.6C40.8004 26.9373 41.3377 26.4 42.0004 26.4H66.0004C66.6631 26.4 67.2004 26.9373 67.2004 27.6V44.4Z" fill="#0E63F4"/>
</g>
</g>
<g clip-path="url(#clip17_2_156)">
<g clip-path="url(#clip18_2_156)">
<path d="M14.4 63.6V54H12V63.6C12.0052 68.2369 15.763 71.9947 20.4 72V69.6C17.088 69.5961 14.4039 66.912 14.4 63.6Z" fill="#0E63F4"/>
</g>
</g>
<g clip-path="url(#clip19_2_156)">
<g clip-path="url(#clip20_2_156)">
<path d="M14.4 49.2H12V51.6H14.4V49.2Z" fill="#0E63F4"/>
</g>
</g>
<g clip-path="url(#clip21_2_156)">
<g clip-path="url(#clip22_2_156)">
<path d="M51.6 0H48V2.4H51.6C54.912 2.4039 57.5961 5.088 57.6 8.4V14.4H60V8.4C59.9948 3.76305 56.2369 0.00525 51.6 0Z" fill="#0E63F4"/>
</g>
</g>
<g clip-path="url(#clip23_2_156)">
<g clip-path="url(#clip24_2_156)">
<path d="M59.9996 16.8H57.5996V19.2H59.9996V16.8Z" fill="#0E63F4"/>
</g>
</g>
<g clip-path="url(#clip25_2_156)">
<g clip-path="url(#clip26_2_156)">
<path d="M59.9998 32.4H57.5998V30C57.5998 29.3373 57.0625 28.8 56.3998 28.8H51.5998C50.9371 28.8 50.3998 29.3373 50.3998 30V32.4H47.9998C47.3371 32.4 46.7998 32.9373 46.7998 33.6V38.4C46.7998 39.0627 47.3371 39.6 47.9998 39.6H50.3998V42C50.3998 42.6627 50.9371 43.2 51.5998 43.2H56.3998C57.0625 43.2 57.5998 42.6627 57.5998 42V39.6H59.9998C60.6625 39.6 61.1998 39.0627 61.1998 38.4V33.6C61.1998 32.9373 60.6625 32.4 59.9998 32.4ZM58.7998 37.2H56.3998C55.7371 37.2 55.1998 37.7373 55.1998 38.4V40.8H52.7998V38.4C52.7998 37.7373 52.2625 37.2 51.5998 37.2H49.1998V34.8H51.5998C52.2625 34.8 52.7998 34.2627 52.7998 33.6V31.2H55.1998V33.6C55.1998 34.2627 55.7371 34.8 56.3998 34.8H58.7998V37.2Z" fill="#0E63F4"/>
</g>
</g>
</g>
<defs>
<clipPath id="clip0_2_156">
<rect width="72" height="72" fill="white"/>
</clipPath>
<clipPath id="clip1_2_156">
<rect width="2.4" height="2.4" fill="white" transform="translate(10.7998 25.2)"/>
</clipPath>
<clipPath id="clip2_2_156">
<rect width="2.4" height="2.4" fill="white" transform="translate(10.7998 25.2)"/>
</clipPath>
<clipPath id="clip3_2_156">
<rect width="12" height="2.4" fill="white" transform="translate(15.5996 25.2)"/>
</clipPath>
<clipPath id="clip4_2_156">
<rect width="12" height="2.4" fill="white" transform="translate(15.5996 25.2)"/>
</clipPath>
<clipPath id="clip5_2_156">
<rect width="19.2" height="2.4" fill="white" transform="translate(8.40039 30)"/>
</clipPath>
<clipPath id="clip6_2_156">
<rect width="19.2" height="2.4" fill="white" transform="translate(8.40039 30)"/>
</clipPath>
<clipPath id="clip7_2_156">
<rect width="14.4" height="2.4" fill="white" transform="translate(8.40039 34.8)"/>
</clipPath>
<clipPath id="clip8_2_156">
<rect width="14.4" height="2.4" fill="white" transform="translate(8.40039 34.8)"/>
</clipPath>
<clipPath id="clip9_2_156">
<rect width="2.4" height="2.4" fill="white" transform="translate(34.7998 60)"/>
</clipPath>
<clipPath id="clip10_2_156">
<rect width="2.4" height="2.4" fill="white" transform="translate(34.7998 60)"/>
</clipPath>
<clipPath id="clip11_2_156">
<rect width="2.40001" height="2.4" fill="white" transform="translate(37.2002 9.6)"/>
</clipPath>
<clipPath id="clip12_2_156">
<rect width="2.40001" height="2.4" fill="white" transform="translate(37.2002 9.6)"/>
</clipPath>
<clipPath id="clip13_2_156">
<rect width="2.4" height="2.4" fill="white" transform="translate(32.4004 9.6)"/>
</clipPath>
<clipPath id="clip14_2_156">
<rect width="2.4" height="2.4" fill="white" transform="translate(32.4004 9.6)"/>
</clipPath>
<clipPath id="clip15_2_156">
<rect width="67.2" height="62.4" fill="white" transform="translate(2.40039 4.8)"/>
</clipPath>
<clipPath id="clip16_2_156">
<rect width="67.2" height="62.4" fill="white" transform="translate(2.40039 4.8)"/>
</clipPath>
<clipPath id="clip17_2_156">
<rect width="8.4" height="18" fill="white" transform="translate(12 54)"/>
</clipPath>
<clipPath id="clip18_2_156">
<rect width="8.4" height="18" fill="white" transform="translate(12 54)"/>
</clipPath>
<clipPath id="clip19_2_156">
<rect width="2.4" height="2.4" fill="white" transform="translate(12 49.2)"/>
</clipPath>
<clipPath id="clip20_2_156">
<rect width="2.4" height="2.4" fill="white" transform="translate(12 49.2)"/>
</clipPath>
<clipPath id="clip21_2_156">
<rect width="12" height="14.4" fill="white" transform="translate(48)"/>
</clipPath>
<clipPath id="clip22_2_156">
<rect width="12" height="14.4" fill="white" transform="translate(48)"/>
</clipPath>
<clipPath id="clip23_2_156">
<rect width="2.4" height="2.4" fill="white" transform="translate(57.5996 16.8)"/>
</clipPath>
<clipPath id="clip24_2_156">
<rect width="2.4" height="2.4" fill="white" transform="translate(57.5996 16.8)"/>
</clipPath>
<clipPath id="clip25_2_156">
<rect width="14.4" height="14.4" fill="white" transform="translate(46.7998 28.8)"/>
</clipPath>
<clipPath id="clip26_2_156">
<rect width="14.4" height="14.4" fill="white" transform="translate(46.7998 28.8)"/>
</clipPath>
</defs>
</svg>
