<svg width="73" height="72" viewBox="0 0 73 72" fill="none" xmlns="http://www.w3.org/2000/svg">
<g clip-path="url(#clip0_2_203)">
<path d="M52.25 2.25H20.75C18.9603 2.25179 17.2445 2.96352 15.979 4.229C14.7135 5.49449 14.0018 7.21034 14 9V63C14.0018 64.7897 14.7135 66.5055 15.979 67.771C17.2445 69.0365 18.9603 69.7482 20.75 69.75H52.25C54.0397 69.7482 55.7555 69.0365 57.021 67.771C58.2865 66.5055 58.9982 64.7897 59 63V9C58.9982 7.21034 58.2865 5.49449 57.021 4.229C55.7555 2.96352 54.0397 2.25179 52.25 2.25ZM56.75 63C56.75 64.1935 56.2759 65.3381 55.432 66.182C54.5881 67.0259 53.4435 67.5 52.25 67.5H20.75C19.5565 67.5 18.4119 67.0259 17.568 66.182C16.7241 65.3381 16.25 64.1935 16.25 63V9C16.25 7.80653 16.7241 6.66193 17.568 5.81802C18.4119 4.97411 19.5565 4.5 20.75 4.5H52.25C53.4435 4.5 54.5881 4.97411 55.432 5.81802C56.2759 6.66193 56.75 7.80653 56.75 9V63Z" fill="#2DC071"/>
<path d="M38.75 58.5H34.25C33.3549 58.5 32.4964 58.8556 31.8635 59.4885C31.2306 60.1215 30.875 60.9799 30.875 61.875C30.875 62.7701 31.2306 63.6285 31.8635 64.2615C32.4964 64.8944 33.3549 65.25 34.25 65.25H38.75C39.6451 65.25 40.5035 64.8944 41.1365 64.2615C41.7694 63.6285 42.125 62.7701 42.125 61.875C42.125 60.9799 41.7694 60.1215 41.1365 59.4885C40.5035 58.8556 39.6451 58.5 38.75 58.5ZM38.75 63H34.25C33.9516 63 33.6655 62.8815 33.4545 62.6705C33.2435 62.4595 33.125 62.1734 33.125 61.875C33.125 61.5766 33.2435 61.2905 33.4545 61.0795C33.6655 60.8685 33.9516 60.75 34.25 60.75H38.75C39.0484 60.75 39.3345 60.8685 39.5455 61.0795C39.7565 61.2905 39.875 61.5766 39.875 61.875C39.875 62.1734 39.7565 62.4595 39.5455 62.6705C39.3345 62.8815 39.0484 63 38.75 63Z" fill="#2DC071"/>
<path d="M28.625 6.75H30.875V9H28.625V6.75Z" fill="#2DC071"/>
<path d="M33.125 6.75H39.875V9H33.125V6.75Z" fill="#2DC071"/>
<path d="M35.7051 31.1703C35.9161 31.3812 36.2022 31.4997 36.5005 31.4997C36.7988 31.4997 37.0849 31.3812 37.2959 31.1703L45.2508 23.2154C46.298 22.1589 46.8842 20.7306 46.8809 19.2431C46.8776 17.7555 46.2853 16.3298 45.2334 15.2779C44.1815 14.226 42.7558 13.6337 41.2682 13.6304C39.7807 13.6271 38.3524 14.2133 37.2959 15.2605L36.5005 16.0559L35.7051 15.2605C34.6487 14.2133 33.2204 13.6271 31.7328 13.6304C30.2452 13.6337 28.8195 14.226 27.7676 15.2779C26.7158 16.3298 26.1234 17.7555 26.1201 19.2431C26.1169 20.7306 26.703 22.1589 27.7503 23.2154L35.7051 31.1703ZM29.341 16.8513C29.6544 16.5378 30.0265 16.2892 30.436 16.1195C30.8455 15.9499 31.2844 15.8626 31.7277 15.8626C32.171 15.8626 32.6099 15.9499 33.0194 16.1195C33.4289 16.2892 33.801 16.5378 34.1144 16.8513L35.7051 18.4432C35.9201 18.6464 36.2047 18.7597 36.5005 18.7597C36.7963 18.7597 37.081 18.6464 37.2959 18.4432L38.8866 16.8513C39.5196 16.2183 40.3782 15.8627 41.2733 15.8627C42.1685 15.8627 43.027 16.2183 43.66 16.8513C44.293 17.4843 44.6486 18.3428 44.6486 19.238C44.6486 20.1331 44.293 20.9917 43.66 21.6247L36.5005 28.7842L29.341 21.6247C28.7093 20.991 28.3546 20.1327 28.3546 19.238C28.3546 18.3432 28.7093 17.485 29.341 16.8513Z" fill="#2DC071"/>
<path d="M44.2625 41.1221C44.1638 40.9171 44.0045 40.7474 43.806 40.6361C43.6076 40.5248 43.3797 40.4773 43.1533 40.5C42.9286 40.5194 42.715 40.6058 42.5401 40.748C42.3652 40.8902 42.237 41.0817 42.1722 41.2976L40.0561 48.3491L37.6003 36.8854C37.5467 36.6394 37.4122 36.4184 37.2182 36.2579C37.0243 36.0974 36.7821 36.0066 36.5304 36C36.2779 35.9912 36.0299 36.0684 35.8271 36.2191C35.6243 36.3697 35.4788 36.5849 35.4144 36.8291L33.1003 45.3173L31.9572 41.3156C31.8958 41.0968 31.7694 40.9018 31.5949 40.7562C31.4204 40.6106 31.2059 40.5213 30.9796 40.5C30.7534 40.4771 30.5257 40.524 30.327 40.6344C30.1282 40.7448 29.9681 40.9135 29.8681 41.1176L27.9297 45H20.75V47.25H28.625C28.8341 47.2501 29.039 47.1919 29.2169 47.0821C29.3947 46.9722 29.5384 46.8149 29.6319 46.6279L30.5881 44.7154L32.0428 49.8094C32.11 50.0445 32.252 50.2513 32.4473 50.3984C32.6426 50.5456 32.8805 50.6251 33.125 50.625H33.1318C33.3774 50.6236 33.6159 50.5418 33.8107 50.392C34.0056 50.2423 34.146 50.0329 34.2106 49.7959L36.3695 41.8815L38.7747 53.1101C38.827 53.3544 38.9591 53.5743 39.1501 53.7353C39.3412 53.8962 39.5804 53.9889 39.83 53.9989H39.875C40.117 53.9989 40.3526 53.9209 40.5468 53.7764C40.7409 53.6319 40.8833 53.4286 40.9528 53.1968L43.5121 44.6625L44.4931 46.6245C44.5861 46.8122 44.7296 46.9701 44.9075 47.0806C45.0854 47.1911 45.2906 47.2498 45.5 47.25H52.25V45H46.1952L44.2625 41.1221Z" fill="#2DC071"/>
</g>
<defs>
<clipPath id="clip0_2_203">
<rect width="45" height="67.5" fill="white" transform="translate(14 2.25)"/>
</clipPath>
</defs>
</svg>
