<svg width="72" height="72" viewBox="0 0 72 72" fill="none" xmlns="http://www.w3.org/2000/svg">
<g clip-path="url(#clip0_2_226)">
<path d="M38.5931 14.9906C39.1878 14.908 39.6028 14.3589 39.5202 13.7642C39.4377 13.1695 38.8886 12.7545 38.2938 12.8373C37.6991 12.9199 37.2842 13.469 37.367 14.0637C37.4495 14.6582 37.9986 15.0731 38.5931 14.9906Z" fill="#E74040"/>
<path d="M19.6807 10.56C20.2109 10.56 20.6407 10.1302 20.6407 9.60003V6.72003C20.6407 6.18987 20.2109 5.76003 19.6807 5.76003C19.1505 5.76003 18.7207 6.18987 18.7207 6.72003V9.60003C18.7207 10.1302 19.1505 10.56 19.6807 10.56Z" fill="#E74040"/>
<path d="M19.6807 12.4801C19.1505 12.4801 18.7207 12.9099 18.7207 13.4401V16.3201C18.7207 16.8502 19.1505 17.2801 19.6807 17.2801C20.2109 17.2801 20.6407 16.8502 20.6407 16.3201V13.4401C20.6407 12.9099 20.2109 12.4801 19.6807 12.4801Z" fill="#E74040"/>
<path d="M14.8799 12.4801H17.7599C18.2901 12.4801 18.7199 12.0502 18.7199 11.5201C18.7199 10.9899 18.2901 10.5601 17.7599 10.5601H14.8799C14.3498 10.5601 13.9199 10.9899 13.9199 11.5201C13.9199 12.0502 14.3498 12.4801 14.8799 12.4801Z" fill="#E74040"/>
<path d="M21.6006 12.4801H24.4806C25.0108 12.4801 25.4406 12.0502 25.4406 11.5201C25.4406 10.9899 25.0108 10.5601 24.4806 10.5601H21.6006C21.0705 10.5601 20.6406 10.9899 20.6406 11.5201C20.6406 12.0502 21.0705 12.4801 21.6006 12.4801Z" fill="#E74040"/>
<path d="M58.4354 18.2401H13.565C10.5846 18.2401 8.16016 20.6646 8.16016 23.6449V54.1132C8.16016 57.0944 10.5854 59.5201 13.5666 59.5201H29.9277L28.5563 64.3201H18.7202C18.19 64.3201 17.7602 64.75 17.7602 65.2801C17.7602 65.8103 18.19 66.2401 18.7202 66.2401H54.2402C54.7708 66.2401 55.2002 65.8103 55.2002 65.2801C55.2002 64.75 54.7708 64.3201 54.2402 64.3201H44.4042L43.0334 59.5201H58.4356C61.4159 59.5201 63.8404 57.0956 63.8404 54.1153V23.6449C63.8402 20.6646 61.4157 18.2401 58.4354 18.2401ZM13.565 20.1601H58.4354C60.3573 20.1601 61.9202 21.7235 61.9202 23.6449V50.8801H10.0802V23.6449C10.0802 21.7235 11.6435 20.1601 13.565 20.1601ZM42.407 64.3201H30.5529L31.9245 59.5201H41.0361L42.407 64.3201ZM58.4354 57.6001H13.5666C11.6445 57.6001 10.0802 56.0358 10.0802 54.1132V52.8001H61.9202V54.1153C61.9202 56.0368 60.3573 57.6001 58.4354 57.6001Z" fill="#E74040"/>
<path d="M36.0001 56.6958C36.8107 56.6958 37.4679 56.0386 37.4679 55.228C37.4679 54.4173 36.8107 53.7601 36.0001 53.7601C35.1894 53.7601 34.5322 54.4173 34.5322 55.228C34.5322 56.0386 35.1894 56.6958 36.0001 56.6958Z" fill="#E74040"/>
<path d="M14.8799 33.5999H16.7999V35.5199C16.7999 36.0501 17.2298 36.4799 17.7599 36.4799H21.5999C22.1301 36.4799 22.5599 36.0501 22.5599 35.5199V33.5999H24.4799C25.0101 33.5999 25.4399 33.1701 25.4399 32.6399V28.7999C25.4399 28.2698 25.0101 27.8399 24.4799 27.8399H22.5599V25.9199C22.5599 25.3898 22.1301 24.9599 21.5999 24.9599H17.7599C17.2298 24.9599 16.7999 25.3898 16.7999 25.9199V27.8399H14.8799C14.3498 27.8399 13.9199 28.2698 13.9199 28.7999V32.6399C13.9199 33.1701 14.3498 33.5999 14.8799 33.5999ZM15.8399 29.7599H17.7599C18.2901 29.7599 18.7199 29.3301 18.7199 28.7999V26.8799H20.6399V28.7999C20.6399 29.3301 21.0698 29.7599 21.5999 29.7599H23.5199V31.6799H21.5999C21.0698 31.6799 20.6399 32.1098 20.6399 32.6399V34.5599H18.7199V32.6399C18.7199 32.1098 18.2901 31.6799 17.7599 31.6799H15.8399V29.7599Z" fill="#E74040"/>
<path d="M29.2803 35.5199H54.2403C54.771 35.5199 55.2003 35.0901 55.2003 34.5599V26.8799C55.2003 26.3498 54.771 25.9199 54.2403 25.9199H29.2803C28.7502 25.9199 28.3203 26.3498 28.3203 26.8799V34.5599C28.3203 35.0901 28.7502 35.5199 29.2803 35.5199ZM30.2403 27.8399H53.2803V33.5999H30.2403V27.8399Z" fill="#E74040"/>
<path d="M14.8799 40.32C14.8799 40.8502 15.3097 41.28 15.8399 41.28H56.1599C56.6905 41.28 57.1199 40.8502 57.1199 40.32C57.1199 39.7899 56.6905 39.36 56.1599 39.36H15.8399C15.3097 39.36 14.8799 39.7899 14.8799 40.32Z" fill="#E74040"/>
<path d="M45.5999 42.24H15.8399C15.3097 42.24 14.8799 42.6699 14.8799 43.2C14.8799 43.7302 15.3097 44.16 15.8399 44.16H45.5999C46.1305 44.16 46.5599 43.7302 46.5599 43.2C46.5599 42.6699 46.1305 42.24 45.5999 42.24Z" fill="#E74040"/>
<path d="M32.1599 45.1201H15.8399C15.3097 45.1201 14.8799 45.5499 14.8799 46.0801C14.8799 46.6102 15.3097 47.0401 15.8399 47.0401H32.1599C32.6905 47.0401 33.1199 46.6102 33.1199 46.0801C33.1199 45.5499 32.6905 45.1201 32.1599 45.1201Z" fill="#E74040"/>
</g>
<defs>
<clipPath id="clip0_2_226">
<rect width="55.6802" height="60.48" fill="white" transform="translate(8.16016 5.76003)"/>
</clipPath>
</defs>
</svg>
