<svg width="72" height="72" viewBox="0 0 72 72" fill="none" xmlns="http://www.w3.org/2000/svg">
<g clip-path="url(#clip0_2_217)">
<path d="M57.4078 19.2217C58.6192 10.8595 53.4302 2.89978 45.2912 0.633347C37.1516 -1.63308 28.5956 2.49968 25.311 10.2837C21.4776 7.66169 16.3976 7.78177 12.693 10.5824C8.9879 13.3831 7.48652 18.2376 8.96388 22.6404C2.5887 25.2407 -1.05493 31.9879 0.267793 38.7444C1.58993 45.501 7.50878 50.3771 14.3936 50.3812H15.5933C16.2558 50.3812 16.793 49.844 16.793 49.1815C16.793 48.519 16.2558 47.9818 15.5933 47.9818H14.3936C8.44956 47.9794 3.40295 43.627 2.5272 37.748C1.65085 31.869 5.20954 26.2342 10.8941 24.4991C11.2291 24.396 11.5021 24.1517 11.6421 23.8307C11.7821 23.5091 11.7745 23.143 11.621 22.8279C11.0722 21.6938 10.7892 20.449 10.7945 19.1889C10.7968 15.8188 12.8125 12.7762 15.9143 11.4594C19.0167 10.1425 22.6052 10.8056 25.0316 13.1447C25.3333 13.4347 25.7644 13.5466 26.1686 13.4394C26.5734 13.3327 26.8927 13.0229 27.0122 12.6222C29.2645 5.17148 37.031 0.860635 44.5449 2.88923C52.0595 4.91842 56.6005 12.5519 54.7975 20.1238C54.7084 20.4976 54.8039 20.8912 55.054 21.1824C55.3042 21.4741 55.6791 21.6282 56.0616 21.5971C56.17 21.5883 56.2696 21.5883 56.3832 21.5883C63.6716 21.5883 69.5799 27.4966 69.5799 34.7851C69.5799 42.0735 63.6716 47.9818 56.3832 47.9818C55.7207 47.9818 55.1835 48.519 55.1835 49.1815C55.1835 49.844 55.7207 50.3812 56.3832 50.3812C64.8051 50.3923 71.7146 43.7149 71.9911 35.2976C72.2676 26.8804 65.8121 19.7642 57.4078 19.2217V19.2217Z" fill="#F3CD03"/>
<path d="M52.7428 57.7873C52.7639 57.7194 52.778 57.6497 52.785 57.5794V51.5809C52.785 46.9431 49.0254 43.1829 44.3871 43.1829C39.7494 43.1829 35.9892 46.9431 35.9892 51.5809V63.5779C35.9892 66.8911 33.3033 69.5764 29.9907 69.5764C26.678 69.5764 23.9921 66.8911 23.9921 63.5779V50.1603C25.425 49.6542 26.3851 48.3022 26.3916 46.782V44.9444C27.9076 44.4108 29.2877 43.5508 30.4347 42.4249C32.4604 40.3993 33.5956 37.6501 33.5898 34.785V31.1859C33.5898 29.8608 32.5154 28.7865 31.1904 28.7865H28.791C28.1284 28.7865 27.5913 29.3237 27.5913 29.9862C27.5913 30.6487 28.1284 31.1859 28.791 31.1859H31.1904V34.785C31.1939 37.0116 30.3117 39.1474 28.7382 40.7226C26.6352 42.8291 23.5745 43.665 20.693 42.9205C16.9837 41.9627 14.3928 38.6161 14.3945 34.785V31.1859H16.7939C17.4565 31.1859 17.9936 30.6487 17.9936 29.9862C17.9936 29.3237 17.4565 28.7865 16.7939 28.7865H14.3945C13.0695 28.7865 11.9951 29.8608 11.9951 31.1859V34.785C11.9939 39.3624 14.8784 43.4424 19.1933 44.9684V46.782C19.1998 48.3022 20.1599 49.6542 21.5927 50.1603V63.5779C21.5927 68.2162 25.3529 71.9758 29.9907 71.9758C34.629 71.9758 38.3886 68.2162 38.3886 63.5779V51.5809C38.3886 48.2682 41.0744 45.5823 44.3871 45.5823C47.6998 45.5823 50.3856 48.2682 50.3856 51.5809V57.5794C50.3926 57.6497 50.4067 57.7194 50.4278 57.7873C48.76 58.3538 47.7472 60.0438 48.0342 61.7819C48.3213 63.5193 49.8238 64.794 51.5853 64.794C53.3468 64.794 54.8494 63.5193 55.1364 61.7819C55.4234 60.0438 54.4106 58.3538 52.7428 57.7873V57.7873ZM23.9921 46.782C23.9921 47.4446 23.455 47.9818 22.7924 47.9818C22.1299 47.9818 21.5927 47.4446 21.5927 46.782V45.5156C22.39 45.6052 23.1949 45.6052 23.9921 45.5156V46.782ZM51.5853 62.3782C50.9228 62.3782 50.3856 61.841 50.3856 61.1785C50.3856 60.516 50.9228 59.9788 51.5853 59.9788C52.2479 59.9788 52.785 60.516 52.785 61.1785C52.785 61.841 52.2479 62.3782 51.5853 62.3782Z" fill="#F3CD03"/>
</g>
<defs>
<clipPath id="clip0_2_217">
<rect width="72" height="72" fill="white"/>
</clipPath>
</defs>
</svg>
